<?xml version="1.0" encoding="UTF-8"?>
<svg width="210px" height="478px" viewBox="0 0 210 478" version="1.1" xmlns="http://www.w3.org/2000/svg" xmlns:xlink="http://www.w3.org/1999/xlink">
    <!-- Generator: Sketch 52.1 (67048) - http://www.bohemiancoding.com/sketch -->
    <title>Group 3</title>
    <desc>Created with Sketch.</desc>
    <defs>
        <path d="M47.7272727,0 L47.7272727,66.3508206 L0,149.85719 L0,425.510282 L105,478 L210,425.510282 L210,147.620173 L162.272727,111.831729 L162.272727,57.2615102 L47.7272727,0 Z M66.8181818,62.9895699 L66.8181818,30.8830412 L143.181818,69.0573813 L143.181818,101.16391 L66.8181818,62.9895699 Z M22.8384545,148.370299 L61.0794545,81.4621331 L139.434273,120.627097 L101.193273,187.539081 L22.8384545,148.370299 Z M155.650091,130.726119 L182.373545,150.761921 L128.928545,177.482051 L155.650091,130.726119 Z M114.545455,206.007827 L190.909091,167.833486 L190.909091,199.940015 L114.545455,238.112447 L114.545455,206.007827 Z M19.0909091,306.826259 L19.0909091,167.833486 L95.4545455,206.007827 L95.4545455,238.112447 L47.7272727,214.253484 L47.7272727,289.037016 L95.4545455,312.895979 L95.4545455,345.000599 L19.0909091,306.826259 Z M190.909091,221.277563 L190.909091,253.382183 L105,296.328315 L66.8181818,277.243054 L66.8181818,245.136525 L105,264.223695 L190.909091,221.277563 Z M114.545455,312.895979 L190.909091,274.721639 L190.909091,413.714411 L114.545455,451.888751 L114.545455,419.784131 L162.272727,395.925169 L162.272727,321.141636 L114.545455,345.000599 L114.545455,312.895979 Z M19.0909091,360.270335 L19.0909091,328.165715 L105,371.111848 L143.181818,352.024678 L143.181818,384.129298 L105,403.216468 L19.0909091,360.270335 Z M19.0909091,413.714411 L19.0909091,381.609791 L95.4545455,419.784131 L95.4545455,451.888751 L19.0909091,413.714411 Z" id="path-1"></path>
    </defs>
    <g id="Page-1" stroke="none" stroke-width="1" fill="none" fill-rule="evenodd">
        <g id="Artboard-Copy" transform="translate(-269.000000, -134.000000)">
            <g id="Group-3" transform="translate(269.000000, 134.000000)">
                <mask id="mask-2" fill="white">
                    <use xlink:href="#path-1"></use>
                </mask>
                <g id="Clip-2"></g>
                <path d="M47.7272727,0 L47.7272727,66.3508206 L0,149.85719 L0,425.510282 L105,478 L210,425.510282 L210,147.620173 L162.272727,111.831729 L162.272727,57.2615102 L47.7272727,0 Z M66.8181818,62.9895699 L66.8181818,30.8830412 L143.181818,69.0573813 L143.181818,101.16391 L66.8181818,62.9895699 Z M22.8384545,148.370299 L61.0794545,81.4621331 L139.434273,120.627097 L101.193273,187.539081 L22.8384545,148.370299 Z M155.650091,130.726119 L182.373545,150.761921 L128.928545,177.482051 L155.650091,130.726119 Z M114.545455,206.007827 L190.909091,167.833486 L190.909091,199.940015 L114.545455,238.112447 L114.545455,206.007827 Z M19.0909091,306.826259 L19.0909091,167.833486 L95.4545455,206.007827 L95.4545455,238.112447 L47.7272727,214.253484 L47.7272727,289.037016 L95.4545455,312.895979 L95.4545455,345.000599 L19.0909091,306.826259 Z M190.909091,221.277563 L190.909091,253.382183 L105,296.328315 L66.8181818,277.243054 L66.8181818,245.136525 L105,264.223695 L190.909091,221.277563 Z M114.545455,312.895979 L190.909091,274.721639 L190.909091,413.714411 L114.545455,451.888751 L114.545455,419.784131 L162.272727,395.925169 L162.272727,321.141636 L114.545455,345.000599 L114.545455,312.895979 Z M19.0909091,360.270335 L19.0909091,328.165715 L105,371.111848 L143.181818,352.024678 L143.181818,384.129298 L105,403.216468 L19.0909091,360.270335 Z M19.0909091,413.714411 L19.0909091,381.609791 L95.4545455,419.784131 L95.4545455,451.888751 L19.0909091,413.714411 Z" id="Fill-1" fill="#140720" mask="url(#mask-2)"></path>
            </g>
        </g>
    </g>
</svg>