<svg width="69" height="27" viewBox="0 0 69 27" xmlns="http://www.w3.org/2000/svg"><title>paddle</title><path d="M23.434 15.616c0 1.266-1.645 2.33-3.24 2.33-1.096 0-2.142-.71-2.142-1.722 0-1.114.548-1.722 1.942-2.177 1.197-.406 2.294-.608 3.44-.76v2.33zM21.142 6.3c-1.496 0-3.375.6-3.375.6-.614.17-1.186.828-1.28 1.466l-.192 1.328c1.727-.585 3.152-1.32 4.797-1.32.996 0 2.342.406 2.342 2.887-.797.052-2.193.255-3.54.61-2.74.708-4.335 2.33-4.335 4.455 0 2.178 1.744 3.697 3.787 3.697 1.894 0 3.19-.452 4.087-1.566.05.455.045.25.045.25.194.616.87 1.113 1.507 1.113h.952v-9.542c0-2.337-2.057-3.98-4.798-3.98zM8.39 17.664c-1.11.078-2.055-.217-2.688-.865V9.14c.785-.172 1.428-.295 1.7-.314 2.034-.144 3.765.96 3.962 3.798.144 2.09-.593 4.87-2.975 5.04zM6.95 6.325c-.944.066-4.25.817-4.25.817-.62.136-1.222.76-1.343 1.39L1 10.396c.587-.24 2.093-.645 3.513-.984l.222.305-1.38 1.86c-.19.258-.344.727-.344 1.05V26l1.368-.542c.732-.29 1.324-1.167 1.324-1.96V19.6c.697.436 1.755.67 2.975.584 3.374-.237 5.673-3.222 5.373-7.56-.323-4.658-3.18-6.577-7.1-6.3zm38.76 11.634c-2.3 0-3.15-1.863-3.15-4.732 0-2.314.7-4.73 3-4.73 2.5 0 3.25 2.265 3.25 4.478 0 3.07-.9 4.983-3.1 4.983zM49.412 1h-.77v7.16c-.7-1.158-2.166-1.826-3.566-1.826-3.25 0-5.116 2.723-5.116 7.05 0 4.177 1.916 6.638 5.066 6.638 1.85 0 3-.705 3.7-1.862.05.503.052.46.052.46.082.635.67 1.15 1.31 1.15h1.06V2.742c0-.463-.184-.907-.51-1.234-.325-.326-.766-.51-1.226-.508zm13.95 7.323c1.002 0 2.125.586 2.125 1.746 0 2.623-4.09 3.146-5.893 3.297 0-3.104 1.615-5.044 3.768-5.044zm-3.527 7.108C61.388 15.23 68 14.877 68 10.033 68 7.51 66.147 6.3 63.34 6.3c-3.805 0-6.26 3.026-6.26 6.91 0 4.188 2.054 6.812 5.96 6.812 1.353 0 3.17-.477 3.17-.477.625-.14 1.245-.77 1.387-1.396L68 16.373c-1.818 1.164-3.105 1.58-4.91 1.58-1.35 0-3.004-.757-3.255-2.524zM33.04 17.96c-2.3 0-3.152-1.863-3.152-4.732 0-2.314.7-4.73 3-4.73 2.5 0 3.25 2.265 3.25 4.478 0 3.07-.9 4.983-3.1 4.983zM36.874 1h-.77v7.16c-.7-1.158-2.166-1.826-3.567-1.826-3.25 0-5.115 2.723-5.115 7.05 0 4.177 1.915 6.638 5.065 6.638 1.85 0 3-.705 3.7-1.862.05.503.053.46.053.46.083.635.67 1.15 1.31 1.15h1.062V2.742c0-.463-.185-.907-.51-1.234-.326-.326-.768-.51-1.227-.508zm17.442 0h-1.28v17.59c0 .642.53 1.16 1.18 1.16h1.38V2.255c0-.693-.573-1.255-1.28-1.255z" stroke="#45567C" stroke-width="1.006" fill="#45567C" fill-rule="evenodd"/></svg>